<!DOCTYPE svg PUBLIC "-//W3C//DTD SVG 1.1//EN" "http://www.w3.org/Graphics/SVG/1.1/DTD/svg11.dtd">
<!-- Uploaded to: SVG Repo, www.svgrepo.com, Transformed by: SVG Repo Mixer Tools -->
<svg fill="#0c1a9a" height="103px" width="103px" version="1.1" id="Layer_1" xmlns="http://www.w3.org/2000/svg" xmlns:xlink="http://www.w3.org/1999/xlink" viewBox="-5.94 -5.94 308.88 308.88" xml:space="preserve" stroke="#0c1a9a" stroke-width="0.8909969999999999">
<g id="SVGRepo_bgCarrier" stroke-width="0"/>
<g id="SVGRepo_tracerCarrier" stroke-linecap="round" stroke-linejoin="round" stroke="#252525" stroke-width="10.097966000000001"> <g> <g> <path d="M294.853,178.121c-1.814-1.671-4.404-2.203-6.729-1.382l-25.97,9.168c17.558-70.878-24.569-143.07-94.69-161.569 c-34.475-9.094-70.423-4.215-101.225,13.737C35.438,56.028,13.475,84.901,4.397,119.377c-8.083,30.698-4.951,63.329,8.819,91.883 c13.616,28.234,36.767,50.846,65.186,63.669c3.256,1.47,6.737,2.203,10.214,2.203c3.647,0,7.293-0.807,10.672-2.418 c6.59-3.141,11.435-8.99,13.293-16.047c3.086-11.721-2.756-23.89-13.893-28.937c-37.335-16.923-56.844-58.027-46.387-97.737 c5.7-21.65,19.508-39.794,38.878-51.089c19.372-11.295,41.963-14.378,63.611-8.675c44.273,11.659,70.99,56.813,60.113,101.108 l-17.584-20.48c-1.612-1.878-4.135-2.705-6.544-2.152c-2.412,0.555-4.318,2.401-4.948,4.794l-11.478,43.588 c-0.566,2.153-0.02,4.447,1.457,6.112l40.428,45.603c1.785,2.012,4.604,2.752,7.144,1.882l57.644-19.78 c2.106-0.723,3.711-2.45,4.279-4.603l11.479-43.587C297.408,182.329,296.667,179.792,294.853,178.121z"/> </g> </g> </g>
<g id="SVGRepo_iconCarrier"> <g> <g> <path d="M294.853,178.121c-1.814-1.671-4.404-2.203-6.729-1.382l-25.97,9.168c17.558-70.878-24.569-143.07-94.69-161.569 c-34.475-9.094-70.423-4.215-101.225,13.737C35.438,56.028,13.475,84.901,4.397,119.377c-8.083,30.698-4.951,63.329,8.819,91.883 c13.616,28.234,36.767,50.846,65.186,63.669c3.256,1.47,6.737,2.203,10.214,2.203c3.647,0,7.293-0.807,10.672-2.418 c6.59-3.141,11.435-8.99,13.293-16.047c3.086-11.721-2.756-23.89-13.893-28.937c-37.335-16.923-56.844-58.027-46.387-97.737 c5.7-21.65,19.508-39.794,38.878-51.089c19.372-11.295,41.963-14.378,63.611-8.675c44.273,11.659,70.99,56.813,60.113,101.108 l-17.584-20.48c-1.612-1.878-4.135-2.705-6.544-2.152c-2.412,0.555-4.318,2.401-4.948,4.794l-11.478,43.588 c-0.566,2.153-0.02,4.447,1.457,6.112l40.428,45.603c1.785,2.012,4.604,2.752,7.144,1.882l57.644-19.78 c2.106-0.723,3.711-2.45,4.279-4.603l11.479-43.587C297.408,182.329,296.667,179.792,294.853,178.121z"/> </g> </g> </g>
</svg>